<?xml version="1.0" encoding="UTF-8"?>
<svg width="152px" height="117px" viewBox="0 0 152 117" version="1.1" xmlns="http://www.w3.org/2000/svg" xmlns:xlink="http://www.w3.org/1999/xlink">
    <!-- Generator: Sketch 49.1 (51147) - http://www.bohemiancoding.com/sketch -->
    <title>Slice</title>
    <desc>Created with Sketch.</desc>
    <defs></defs>
    <g id="Page-1" stroke="none" stroke-width="1" fill="none" fill-rule="evenodd">
        <path d="M48.8012529,0.0247417894 L74.1493217,17.8067838 C67.3825508,27.9020177 62.9073308,35.330585 60.7236616,40.0924857 C54.6453928,53.3472924 52.457645,65.3186125 50.9037735,71.9532896 C48.5125398,82.163312 48.5125398,97.1988731 50.9037735,117.059973 L5.443623,117.059973 C4.63985079,87.8375851 6.71122287,66.5503265 11.6577392,53.198197 C15.1866407,43.672635 20.0210105,31.7830183 31.1177348,17.8067838 C34.0895534,14.0638024 39.9840594,8.13645502 48.8012529,0.0247417894 Z" id="Path" fill="#000000"></path>
        <path d="M123.801253,0.0247417894 L149.149322,17.8067838 C142.382551,27.9020177 137.907331,35.330585 135.723662,40.0924857 C129.645393,53.3472924 127.457645,65.3186125 125.903773,71.9532896 C123.51254,82.163312 123.51254,97.1988731 125.903773,117.059973 L80.443623,117.059973 C79.6398508,87.8375851 81.7112229,66.5503265 86.6577392,53.198197 C90.1866407,43.672635 95.0210105,31.7830183 106.117735,17.8067838 C109.089553,14.0638024 114.984059,8.13645502 123.801253,0.0247417894 Z" id="Path-Copy" fill="#000000"></path>
    </g>
</svg>